<mxfile host="app.diagrams.net" modified="2023-10-03T12:59:30.265Z" agent="Mozilla/5.0 (Windows NT 10.0; Win64; x64) AppleWebKit/537.36 (KHTML, like Gecko) Chrome/117.0.0.0 Safari/537.36" etag="g9kqEss6HJgkuV1pwmh4" version="22.0.2" type="device">
  <diagram name="Page-1" id="2YBvvXClWsGukQMizWep">
    <mxGraphModel dx="1479" dy="326" grid="1" gridSize="10" guides="1" tooltips="1" connect="1" arrows="1" fold="1" page="1" pageScale="1" pageWidth="850" pageHeight="1100" math="0" shadow="0">
      <root>
        <mxCell id="0" />
        <mxCell id="1" parent="0" />
        <mxCell id="aM9ryv3xv72pqoxQDRHE-1" value="&lt;b&gt;&lt;u&gt;:User&lt;/u&gt;&lt;/b&gt;" style="shape=umlLifeline;perimeter=lifelinePerimeter;whiteSpace=wrap;html=1;container=0;dropTarget=0;collapsible=0;recursiveResize=0;outlineConnect=0;portConstraint=eastwest;newEdgeStyle={&quot;edgeStyle&quot;:&quot;elbowEdgeStyle&quot;,&quot;elbow&quot;:&quot;vertical&quot;,&quot;curved&quot;:0,&quot;rounded&quot;:0};" parent="1" vertex="1">
          <mxGeometry x="40" y="40" width="100" height="870" as="geometry" />
        </mxCell>
        <mxCell id="aM9ryv3xv72pqoxQDRHE-2" value="" style="html=1;points=[];perimeter=orthogonalPerimeter;outlineConnect=0;targetShapes=umlLifeline;portConstraint=eastwest;newEdgeStyle={&quot;edgeStyle&quot;:&quot;elbowEdgeStyle&quot;,&quot;elbow&quot;:&quot;vertical&quot;,&quot;curved&quot;:0,&quot;rounded&quot;:0};" parent="aM9ryv3xv72pqoxQDRHE-1" vertex="1">
          <mxGeometry x="45" y="70" width="10" height="270" as="geometry" />
        </mxCell>
        <mxCell id="aM9ryv3xv72pqoxQDRHE-5" value="&lt;b&gt;&lt;u&gt;:System&lt;/u&gt;&lt;/b&gt;" style="shape=umlLifeline;perimeter=lifelinePerimeter;whiteSpace=wrap;html=1;container=0;dropTarget=0;collapsible=0;recursiveResize=0;outlineConnect=0;portConstraint=eastwest;newEdgeStyle={&quot;edgeStyle&quot;:&quot;elbowEdgeStyle&quot;,&quot;elbow&quot;:&quot;vertical&quot;,&quot;curved&quot;:0,&quot;rounded&quot;:0};" parent="1" vertex="1">
          <mxGeometry x="220" y="40" width="100" height="870" as="geometry" />
        </mxCell>
        <mxCell id="aM9ryv3xv72pqoxQDRHE-6" value="" style="html=1;points=[];perimeter=orthogonalPerimeter;outlineConnect=0;targetShapes=umlLifeline;portConstraint=eastwest;newEdgeStyle={&quot;edgeStyle&quot;:&quot;elbowEdgeStyle&quot;,&quot;elbow&quot;:&quot;vertical&quot;,&quot;curved&quot;:0,&quot;rounded&quot;:0};" parent="aM9ryv3xv72pqoxQDRHE-5" vertex="1">
          <mxGeometry x="45" y="70" width="10" height="270" as="geometry" />
        </mxCell>
        <mxCell id="aM9ryv3xv72pqoxQDRHE-7" value="Request inventory dashboard" style="html=1;verticalAlign=bottom;endArrow=block;edgeStyle=elbowEdgeStyle;elbow=horizontal;curved=0;rounded=0;" parent="1" source="aM9ryv3xv72pqoxQDRHE-2" target="aM9ryv3xv72pqoxQDRHE-6" edge="1">
          <mxGeometry relative="1" as="geometry">
            <mxPoint x="195" y="130" as="sourcePoint" />
            <Array as="points">
              <mxPoint x="180" y="120" />
            </Array>
          </mxGeometry>
        </mxCell>
        <mxCell id="xENhY5tNj3Xzj7cGjBOY-2" value="&lt;b&gt;&lt;u&gt;:Database&lt;/u&gt;&lt;/b&gt;" style="shape=umlLifeline;perimeter=lifelinePerimeter;whiteSpace=wrap;html=1;container=0;dropTarget=0;collapsible=0;recursiveResize=0;outlineConnect=0;portConstraint=eastwest;newEdgeStyle={&quot;edgeStyle&quot;:&quot;elbowEdgeStyle&quot;,&quot;elbow&quot;:&quot;vertical&quot;,&quot;curved&quot;:0,&quot;rounded&quot;:0};" parent="1" vertex="1">
          <mxGeometry x="400" y="40" width="100" height="870" as="geometry" />
        </mxCell>
        <mxCell id="KE-mL2BSJ963tJkiToLp-2" value="Delete data" style="text;html=1;align=center;verticalAlign=middle;resizable=0;points=[];autosize=1;strokeColor=none;fillColor=none;" parent="1" vertex="1">
          <mxGeometry x="473" y="577" width="80" height="30" as="geometry" />
        </mxCell>
        <mxCell id="MYxluvSK5tOmsMn09CxT-1" value="Request data" style="html=1;verticalAlign=bottom;endArrow=block;edgeStyle=elbowEdgeStyle;elbow=horizontal;curved=0;rounded=0;" edge="1" parent="1">
          <mxGeometry relative="1" as="geometry">
            <mxPoint x="275" y="130" as="sourcePoint" />
            <Array as="points">
              <mxPoint x="360" y="130" />
            </Array>
            <mxPoint x="445" y="130" as="targetPoint" />
          </mxGeometry>
        </mxCell>
        <mxCell id="MYxluvSK5tOmsMn09CxT-2" value="" style="html=1;points=[];perimeter=orthogonalPerimeter;outlineConnect=0;targetShapes=umlLifeline;portConstraint=eastwest;newEdgeStyle={&quot;edgeStyle&quot;:&quot;elbowEdgeStyle&quot;,&quot;elbow&quot;:&quot;vertical&quot;,&quot;curved&quot;:0,&quot;rounded&quot;:0};" vertex="1" parent="1">
          <mxGeometry x="445" y="120" width="10" height="180" as="geometry" />
        </mxCell>
        <mxCell id="MYxluvSK5tOmsMn09CxT-3" value="Send data" style="html=1;verticalAlign=bottom;endArrow=open;dashed=1;endSize=8;edgeStyle=elbowEdgeStyle;elbow=vertical;curved=0;rounded=0;" edge="1" parent="1">
          <mxGeometry relative="1" as="geometry">
            <mxPoint x="275" y="154" as="targetPoint" />
            <Array as="points">
              <mxPoint x="370" y="154" />
            </Array>
            <mxPoint x="445" y="154" as="sourcePoint" />
            <mxPoint as="offset" />
          </mxGeometry>
        </mxCell>
        <mxCell id="MYxluvSK5tOmsMn09CxT-4" value="" style="endArrow=classic;html=1;rounded=0;" edge="1" parent="1">
          <mxGeometry width="50" height="50" relative="1" as="geometry">
            <mxPoint x="275" y="176" as="sourcePoint" />
            <mxPoint x="274.9999999999999" y="196" as="targetPoint" />
            <Array as="points">
              <mxPoint x="290" y="176" />
              <mxPoint x="290" y="196" />
            </Array>
          </mxGeometry>
        </mxCell>
        <mxCell id="MYxluvSK5tOmsMn09CxT-5" value="Load data &lt;br&gt;into dashboard" style="text;html=1;align=center;verticalAlign=middle;resizable=0;points=[];autosize=1;strokeColor=none;fillColor=none;" vertex="1" parent="1">
          <mxGeometry x="285" y="166" width="100" height="40" as="geometry" />
        </mxCell>
        <mxCell id="MYxluvSK5tOmsMn09CxT-6" value="" style="html=1;verticalAlign=bottom;endArrow=open;dashed=1;endSize=8;edgeStyle=elbowEdgeStyle;elbow=vertical;curved=0;rounded=0;" edge="1" parent="1">
          <mxGeometry relative="1" as="geometry">
            <mxPoint x="95" y="208" as="targetPoint" />
            <Array as="points">
              <mxPoint x="190" y="208" />
            </Array>
            <mxPoint x="265" y="208" as="sourcePoint" />
          </mxGeometry>
        </mxCell>
        <mxCell id="MYxluvSK5tOmsMn09CxT-7" value="Fill details and submit" style="html=1;verticalAlign=bottom;endArrow=block;edgeStyle=elbowEdgeStyle;elbow=horizontal;curved=0;rounded=0;" edge="1" parent="1">
          <mxGeometry relative="1" as="geometry">
            <mxPoint x="95" y="230" as="sourcePoint" />
            <Array as="points">
              <mxPoint x="180" y="230" />
            </Array>
            <mxPoint x="265" y="230" as="targetPoint" />
          </mxGeometry>
        </mxCell>
        <mxCell id="MYxluvSK5tOmsMn09CxT-8" value="alt" style="shape=umlFrame;whiteSpace=wrap;html=1;pointerEvents=0;width=60;height=20;" vertex="1" parent="1">
          <mxGeometry x="-10" y="240" width="560" height="80" as="geometry" />
        </mxCell>
        <mxCell id="MYxluvSK5tOmsMn09CxT-9" value="[valid]" style="text;html=1;align=center;verticalAlign=middle;resizable=0;points=[];autosize=1;strokeColor=none;fillColor=none;" vertex="1" parent="1">
          <mxGeometry x="22" y="258" width="50" height="30" as="geometry" />
        </mxCell>
        <mxCell id="MYxluvSK5tOmsMn09CxT-10" value="Send data" style="html=1;verticalAlign=bottom;endArrow=block;edgeStyle=elbowEdgeStyle;elbow=horizontal;curved=0;rounded=0;" edge="1" parent="1">
          <mxGeometry relative="1" as="geometry">
            <mxPoint x="275" y="263" as="sourcePoint" />
            <Array as="points">
              <mxPoint x="360" y="263" />
            </Array>
            <mxPoint x="445" y="263" as="targetPoint" />
          </mxGeometry>
        </mxCell>
        <mxCell id="MYxluvSK5tOmsMn09CxT-11" value="" style="endArrow=classic;html=1;rounded=0;" edge="1" parent="1">
          <mxGeometry width="50" height="50" relative="1" as="geometry">
            <mxPoint x="455" y="272" as="sourcePoint" />
            <mxPoint x="454.9999999999999" y="292" as="targetPoint" />
            <Array as="points">
              <mxPoint x="470" y="272" />
              <mxPoint x="470" y="292" />
            </Array>
          </mxGeometry>
        </mxCell>
        <mxCell id="MYxluvSK5tOmsMn09CxT-12" value="Insert data" style="text;html=1;align=center;verticalAlign=middle;resizable=0;points=[];autosize=1;strokeColor=none;fillColor=none;" vertex="1" parent="1">
          <mxGeometry x="467" y="267" width="80" height="30" as="geometry" />
        </mxCell>
        <mxCell id="MYxluvSK5tOmsMn09CxT-13" value="" style="swimlane;startSize=0;" vertex="1" parent="1">
          <mxGeometry x="-10" y="320" width="560" height="50" as="geometry" />
        </mxCell>
        <mxCell id="MYxluvSK5tOmsMn09CxT-14" value="[invalid]" style="text;html=1;align=center;verticalAlign=middle;resizable=0;points=[];autosize=1;strokeColor=none;fillColor=none;" vertex="1" parent="1">
          <mxGeometry x="17" y="318" width="60" height="30" as="geometry" />
        </mxCell>
        <mxCell id="MYxluvSK5tOmsMn09CxT-16" value="Send error message" style="html=1;verticalAlign=bottom;endArrow=open;dashed=1;endSize=8;edgeStyle=elbowEdgeStyle;elbow=vertical;curved=0;rounded=0;" edge="1" parent="1">
          <mxGeometry relative="1" as="geometry">
            <mxPoint x="95" y="344" as="targetPoint" />
            <Array as="points">
              <mxPoint x="190" y="344" />
            </Array>
            <mxPoint x="265" y="344" as="sourcePoint" />
            <mxPoint as="offset" />
          </mxGeometry>
        </mxCell>
        <mxCell id="MYxluvSK5tOmsMn09CxT-17" value="Send success message" style="html=1;verticalAlign=bottom;endArrow=open;dashed=1;endSize=8;edgeStyle=elbowEdgeStyle;elbow=horizontal;curved=0;rounded=0;" edge="1" parent="1">
          <mxGeometry relative="1" as="geometry">
            <mxPoint x="95" y="304" as="targetPoint" />
            <Array as="points">
              <mxPoint x="190" y="304" />
            </Array>
            <mxPoint x="265" y="304" as="sourcePoint" />
            <mxPoint as="offset" />
          </mxGeometry>
        </mxCell>
        <mxCell id="MYxluvSK5tOmsMn09CxT-18" value="" style="html=1;points=[];perimeter=orthogonalPerimeter;outlineConnect=0;targetShapes=umlLifeline;portConstraint=eastwest;newEdgeStyle={&quot;edgeStyle&quot;:&quot;elbowEdgeStyle&quot;,&quot;elbow&quot;:&quot;vertical&quot;,&quot;curved&quot;:0,&quot;rounded&quot;:0};" vertex="1" parent="1">
          <mxGeometry x="85" y="410" width="10" height="460" as="geometry" />
        </mxCell>
        <mxCell id="MYxluvSK5tOmsMn09CxT-19" value="" style="html=1;points=[];perimeter=orthogonalPerimeter;outlineConnect=0;targetShapes=umlLifeline;portConstraint=eastwest;newEdgeStyle={&quot;edgeStyle&quot;:&quot;elbowEdgeStyle&quot;,&quot;elbow&quot;:&quot;vertical&quot;,&quot;curved&quot;:0,&quot;rounded&quot;:0};" vertex="1" parent="1">
          <mxGeometry x="265" y="410" width="10" height="460" as="geometry" />
        </mxCell>
        <mxCell id="MYxluvSK5tOmsMn09CxT-20" value="" style="html=1;points=[];perimeter=orthogonalPerimeter;outlineConnect=0;targetShapes=umlLifeline;portConstraint=eastwest;newEdgeStyle={&quot;edgeStyle&quot;:&quot;elbowEdgeStyle&quot;,&quot;elbow&quot;:&quot;vertical&quot;,&quot;curved&quot;:0,&quot;rounded&quot;:0};" vertex="1" parent="1">
          <mxGeometry x="445" y="410" width="10" height="340" as="geometry" />
        </mxCell>
        <mxCell id="MYxluvSK5tOmsMn09CxT-21" value="Search item" style="html=1;verticalAlign=bottom;endArrow=block;edgeStyle=elbowEdgeStyle;elbow=horizontal;curved=0;rounded=0;" edge="1" parent="1">
          <mxGeometry relative="1" as="geometry">
            <mxPoint x="95" y="423" as="sourcePoint" />
            <Array as="points">
              <mxPoint x="180" y="423" />
            </Array>
            <mxPoint x="265" y="423" as="targetPoint" />
          </mxGeometry>
        </mxCell>
        <mxCell id="MYxluvSK5tOmsMn09CxT-22" value="Select item" style="html=1;verticalAlign=bottom;endArrow=block;edgeStyle=elbowEdgeStyle;elbow=horizontal;curved=0;rounded=0;" edge="1" parent="1">
          <mxGeometry relative="1" as="geometry">
            <mxPoint x="95" y="523" as="sourcePoint" />
            <Array as="points">
              <mxPoint x="180" y="523" />
            </Array>
            <mxPoint x="265" y="523" as="targetPoint" />
          </mxGeometry>
        </mxCell>
        <mxCell id="MYxluvSK5tOmsMn09CxT-23" value="alt" style="shape=umlFrame;whiteSpace=wrap;html=1;pointerEvents=0;width=60;height=20;" vertex="1" parent="1">
          <mxGeometry x="-30" y="544" width="580" height="80" as="geometry" />
        </mxCell>
        <mxCell id="MYxluvSK5tOmsMn09CxT-24" value="[if delete clicked]" style="text;html=1;align=center;verticalAlign=middle;resizable=0;points=[];autosize=1;strokeColor=none;fillColor=none;" vertex="1" parent="1">
          <mxGeometry x="-27" y="562" width="110" height="30" as="geometry" />
        </mxCell>
        <mxCell id="MYxluvSK5tOmsMn09CxT-25" value="Send data" style="html=1;verticalAlign=bottom;endArrow=block;edgeStyle=elbowEdgeStyle;elbow=horizontal;curved=0;rounded=0;" edge="1" parent="1">
          <mxGeometry x="-0.002" relative="1" as="geometry">
            <mxPoint x="275" y="570" as="sourcePoint" />
            <Array as="points">
              <mxPoint x="360" y="570" />
            </Array>
            <mxPoint x="445" y="570" as="targetPoint" />
            <mxPoint as="offset" />
          </mxGeometry>
        </mxCell>
        <mxCell id="MYxluvSK5tOmsMn09CxT-26" value="Request data" style="html=1;verticalAlign=bottom;endArrow=block;edgeStyle=elbowEdgeStyle;elbow=horizontal;curved=0;rounded=0;" edge="1" parent="1">
          <mxGeometry relative="1" as="geometry">
            <mxPoint x="275" y="433" as="sourcePoint" />
            <Array as="points">
              <mxPoint x="360" y="433" />
            </Array>
            <mxPoint x="445" y="433" as="targetPoint" />
          </mxGeometry>
        </mxCell>
        <mxCell id="MYxluvSK5tOmsMn09CxT-27" value="Send data" style="html=1;verticalAlign=bottom;endArrow=open;dashed=1;endSize=8;edgeStyle=elbowEdgeStyle;elbow=vertical;curved=0;rounded=0;" edge="1" parent="1">
          <mxGeometry relative="1" as="geometry">
            <mxPoint x="275" y="451" as="targetPoint" />
            <Array as="points">
              <mxPoint x="370" y="451" />
            </Array>
            <mxPoint x="445" y="451" as="sourcePoint" />
            <mxPoint as="offset" />
          </mxGeometry>
        </mxCell>
        <mxCell id="MYxluvSK5tOmsMn09CxT-28" value="" style="endArrow=classic;html=1;rounded=0;" edge="1" parent="1">
          <mxGeometry width="50" height="50" relative="1" as="geometry">
            <mxPoint x="275" y="466" as="sourcePoint" />
            <mxPoint x="274.9999999999999" y="486" as="targetPoint" />
            <Array as="points">
              <mxPoint x="290" y="466" />
              <mxPoint x="290" y="486" />
            </Array>
          </mxGeometry>
        </mxCell>
        <mxCell id="MYxluvSK5tOmsMn09CxT-29" value="Load data &lt;br&gt;into dashboard" style="text;html=1;align=center;verticalAlign=middle;resizable=0;points=[];autosize=1;strokeColor=none;fillColor=none;" vertex="1" parent="1">
          <mxGeometry x="285" y="456" width="100" height="40" as="geometry" />
        </mxCell>
        <mxCell id="MYxluvSK5tOmsMn09CxT-30" value="" style="html=1;verticalAlign=bottom;endArrow=open;dashed=1;endSize=8;edgeStyle=elbowEdgeStyle;elbow=vertical;curved=0;rounded=0;" edge="1" parent="1">
          <mxGeometry relative="1" as="geometry">
            <mxPoint x="95" y="498" as="targetPoint" />
            <Array as="points">
              <mxPoint x="190" y="498" />
            </Array>
            <mxPoint x="265" y="498" as="sourcePoint" />
          </mxGeometry>
        </mxCell>
        <mxCell id="MYxluvSK5tOmsMn09CxT-31" value="" style="endArrow=classic;html=1;rounded=0;" edge="1" parent="1">
          <mxGeometry width="50" height="50" relative="1" as="geometry">
            <mxPoint x="454.92857142857144" y="580" as="sourcePoint" />
            <mxPoint x="455" y="601" as="targetPoint" />
            <Array as="points">
              <mxPoint x="479" y="580" />
              <mxPoint x="479" y="601" />
            </Array>
          </mxGeometry>
        </mxCell>
        <mxCell id="MYxluvSK5tOmsMn09CxT-32" value="" style="swimlane;startSize=0;" vertex="1" parent="1">
          <mxGeometry x="-30" y="624" width="580" height="116" as="geometry" />
        </mxCell>
        <mxCell id="MYxluvSK5tOmsMn09CxT-34" value="[if update clicked]" style="text;html=1;align=center;verticalAlign=middle;resizable=0;points=[];autosize=1;strokeColor=none;fillColor=none;" vertex="1" parent="MYxluvSK5tOmsMn09CxT-32">
          <mxGeometry x="-1" y="7" width="120" height="30" as="geometry" />
        </mxCell>
        <mxCell id="MYxluvSK5tOmsMn09CxT-33" value="Send success message" style="html=1;verticalAlign=bottom;endArrow=open;dashed=1;endSize=8;edgeStyle=elbowEdgeStyle;elbow=vertical;curved=0;rounded=0;" edge="1" parent="1">
          <mxGeometry relative="1" as="geometry">
            <mxPoint x="95" y="610" as="targetPoint" />
            <Array as="points">
              <mxPoint x="190" y="610" />
            </Array>
            <mxPoint x="265" y="610" as="sourcePoint" />
            <mxPoint as="offset" />
          </mxGeometry>
        </mxCell>
        <mxCell id="MYxluvSK5tOmsMn09CxT-35" value="Change and submit details" style="html=1;verticalAlign=bottom;endArrow=block;edgeStyle=elbowEdgeStyle;elbow=horizontal;curved=0;rounded=0;" edge="1" parent="1">
          <mxGeometry relative="1" as="geometry">
            <mxPoint x="95" y="652" as="sourcePoint" />
            <Array as="points">
              <mxPoint x="180" y="652" />
            </Array>
            <mxPoint x="265" y="652" as="targetPoint" />
          </mxGeometry>
        </mxCell>
        <mxCell id="MYxluvSK5tOmsMn09CxT-36" value="Send data" style="html=1;verticalAlign=bottom;endArrow=block;edgeStyle=elbowEdgeStyle;elbow=horizontal;curved=0;rounded=0;" edge="1" parent="1">
          <mxGeometry relative="1" as="geometry">
            <mxPoint x="275" y="662" as="sourcePoint" />
            <Array as="points">
              <mxPoint x="360" y="662" />
            </Array>
            <mxPoint x="445" y="662" as="targetPoint" />
          </mxGeometry>
        </mxCell>
        <mxCell id="MYxluvSK5tOmsMn09CxT-37" value="Update data" style="text;html=1;align=center;verticalAlign=middle;resizable=0;points=[];autosize=1;strokeColor=none;fillColor=none;" vertex="1" parent="1">
          <mxGeometry x="468" y="667" width="90" height="30" as="geometry" />
        </mxCell>
        <mxCell id="MYxluvSK5tOmsMn09CxT-38" value="" style="endArrow=classic;html=1;rounded=0;" edge="1" parent="1">
          <mxGeometry width="50" height="50" relative="1" as="geometry">
            <mxPoint x="454.92857142857144" y="670" as="sourcePoint" />
            <mxPoint x="455" y="691" as="targetPoint" />
            <Array as="points">
              <mxPoint x="479" y="670" />
              <mxPoint x="479" y="691" />
            </Array>
          </mxGeometry>
        </mxCell>
        <mxCell id="MYxluvSK5tOmsMn09CxT-39" value="Send success message" style="html=1;verticalAlign=bottom;endArrow=open;dashed=1;endSize=8;edgeStyle=elbowEdgeStyle;elbow=vertical;curved=0;rounded=0;" edge="1" parent="1">
          <mxGeometry relative="1" as="geometry">
            <mxPoint x="95" y="700" as="targetPoint" />
            <Array as="points">
              <mxPoint x="190" y="700" />
            </Array>
            <mxPoint x="265" y="700" as="sourcePoint" />
            <mxPoint as="offset" />
          </mxGeometry>
        </mxCell>
        <mxCell id="MYxluvSK5tOmsMn09CxT-40" value="" style="swimlane;startSize=0;" vertex="1" parent="1">
          <mxGeometry x="-30" y="740" width="580" height="116" as="geometry" />
        </mxCell>
        <mxCell id="MYxluvSK5tOmsMn09CxT-41" value="[if clear clicked]" style="text;html=1;align=center;verticalAlign=middle;resizable=0;points=[];autosize=1;strokeColor=none;fillColor=none;" vertex="1" parent="MYxluvSK5tOmsMn09CxT-40">
          <mxGeometry x="4" y="7" width="110" height="30" as="geometry" />
        </mxCell>
        <mxCell id="MYxluvSK5tOmsMn09CxT-43" value="Clear details in&lt;br&gt;&amp;nbsp;the dashboard" style="text;html=1;align=center;verticalAlign=middle;resizable=0;points=[];autosize=1;strokeColor=none;fillColor=none;" vertex="1" parent="MYxluvSK5tOmsMn09CxT-40">
          <mxGeometry x="330" y="32" width="100" height="40" as="geometry" />
        </mxCell>
        <mxCell id="MYxluvSK5tOmsMn09CxT-42" value="Clear data&amp;nbsp;" style="html=1;verticalAlign=bottom;endArrow=block;edgeStyle=elbowEdgeStyle;elbow=horizontal;curved=0;rounded=0;" edge="1" parent="1">
          <mxGeometry relative="1" as="geometry">
            <mxPoint x="95" y="772" as="sourcePoint" />
            <Array as="points">
              <mxPoint x="180" y="772" />
            </Array>
            <mxPoint x="265" y="772" as="targetPoint" />
          </mxGeometry>
        </mxCell>
        <mxCell id="MYxluvSK5tOmsMn09CxT-44" value="" style="endArrow=classic;html=1;rounded=0;" edge="1" parent="1">
          <mxGeometry width="50" height="50" relative="1" as="geometry">
            <mxPoint x="274.92857142857144" y="780" as="sourcePoint" />
            <mxPoint x="275" y="801" as="targetPoint" />
            <Array as="points">
              <mxPoint x="299" y="780" />
              <mxPoint x="299" y="801" />
            </Array>
          </mxGeometry>
        </mxCell>
        <mxCell id="MYxluvSK5tOmsMn09CxT-45" value="" style="html=1;verticalAlign=bottom;endArrow=open;dashed=1;endSize=8;edgeStyle=elbowEdgeStyle;elbow=vertical;curved=0;rounded=0;" edge="1" parent="1">
          <mxGeometry relative="1" as="geometry">
            <mxPoint x="95" y="810" as="targetPoint" />
            <Array as="points">
              <mxPoint x="190" y="810" />
            </Array>
            <mxPoint x="265" y="810" as="sourcePoint" />
            <mxPoint as="offset" />
          </mxGeometry>
        </mxCell>
      </root>
    </mxGraphModel>
  </diagram>
</mxfile>
